<svg width="1024" height="768" xmlns="http://www.w3.org/2000/svg">
 <!-- Created with Method Draw - http://github.com/duopixel/Method-Draw/ -->

 <g>
  <title>background</title>
  <rect x="-1" y="-1" width="1026" height="770" id="canvas_background" fill="#fff"/>
  <g id="canvasGrid" display="none">
   <rect id="svg_1" width="100%" height="100%" x="0" y="0" stroke-width="0" fill="url(#gridpattern)"/>
  </g>
 </g>
 <g>
  <title>Layer 1</title>
 </g>
 <g>
  <title>Layer 2</title>
  <ellipse id="svg_2" fill="lightgray" ry="30" rx="110" cy="370" cx="350"/>
  <circle id="svg_3" fill="orange" r="150" cy="225" cx="350"/>
  <ellipse id="svg_4" fill="lightgray" ry="30" rx="110" cy="370" cx="700"/>
  <circle id="svg_5" fill="yellow" r="150" cy="225" cx="700"/>
  <g id="svg_6">
   <circle id="svg_7" fill="#fff" r="60" cy="200" cx="350"/>
   <circle id="svg_8" fill="#000" r="10" cy="200" cx="350"/>
  </g>
  <g id="svg_9">
   <circle id="svg_10" fill="#fff" r="60" cy="200" cx="420"/>
   <circle id="svg_11" fill="#000" r="10" cy="200" cx="420"/>
  </g>
  <circle id="svg_12" fill="#000" r="17" cy="255" cx="390"/>
  <ellipse id="svg_13" fill="red" ry="12" rx="22" cy="300" cx="350"/>
  <ellipse id="svg_14" transform="rotate(20 0,0) " fill="orange" ry="35" rx="100" cy="200" cx="220"/>
  <polygon id="svg_15" fill="#fff" stroke="#fff" points="45,230 95,220 85,275"/>
  <polygon id="svg_16" fill="orange" stroke="orange" points="225,90 275,95 230,140"/>
  <polygon id="svg_17" fill="#000" stroke="#000" points="230,95 270,100 235,135"/>
  <polygon id="svg_18" fill="orange" stroke="orange" points="425,50 435,105 380,80"/>
  <polygon id="svg_19" fill="#000" stroke="#000" points="422,60 428,100 388,82"/>
  <g id="svg_20">
   <circle id="svg_21" fill="#fff" r="60" cy="200" cx="650"/>
   <circle id="svg_22" fill="#000" r="10" cy="200" cx="650"/>
  </g>
  <g id="svg_23">
   <circle id="svg_24" fill="#fff" r="60" cy="200" cx="720"/>
   <circle id="svg_25" fill="#000" r="10" cy="200" cx="720"/>
  </g>
  <ellipse id="svg_26" fill="red" ry="22" rx="12" cy="300" cx="690"/>
 </g>
</svg>